<svg xmlns="http://www.w3.org/2000/svg" viewBox="0 0 1440 320" preserveAspectRatio="none">
  <path fill="var(--color2)" fill-opacity="0.8" d="M0,160L48,170.7C96,181,192,203,288,186.7C384,171,480,117,576,117.3C672,117,768,171,864,197.3C960,224,1056,224,1152,197.3C1248,171,1344,117,1392,90.7L1440,64V320H0Z"/>
  <path fill="var(--color3)" fill-opacity="0.6" d="M0,256L48,240C96,224,192,192,288,176C384,160,480,160,576,181.3C672,203,768,245,864,250.7C960,256,1056,224,1152,208C1248,192,1344,192,1392,192L1440,192V320H0Z"/>
</svg>
